# xmcd CD database file
#
# Track frame offsets:
#	150
#	17190
#	35600
#	55785
#	90425
#	122275
#	143455
#	166730
#	189687
#	212862
#
# Disc length: 3219 seconds
#
# Revision: 2
# Processed by: cddbd v1.4PL0 Copyright (c) Steve Scherf et al.
# Submitted via: CDex 1.51
#
DISCID=7b0c910a
DTITLE=Graig Erickson - Retro Blues Express
DYEAR=1994
DGENRE=Blues
TTITLE0=Wild Little Woman
TTITLE1=Don't Fight the Feeling
TTITLE2=Cold Wind
TTITLE3=Flyin' Free
TTITLE4=40 Days (40 Nights)
TTITLE5=Me and My Guitar
TTITLE6=Cosmic Farm
TTITLE7=Everybody's Business
TTITLE8=Nightmare Hotel
TTITLE9=Closing Time
EXTD=YEAR: 1994
EXTT0=
EXTT1=
EXTT2=
EXTT3=
EXTT4=
EXTT5=
EXTT6=
EXTT7=
EXTT8=
EXTT9=
PLAYORDER=
